<mxfile host="app.diagrams.net" agent="Mozilla/5.0 (Macintosh; Intel Mac OS X 10_15_7) AppleWebKit/537.36 (KHTML, like Gecko) Chrome/133.0.0.0 Safari/537.36" version="26.0.13" pages="2">
  <diagram name="Page-1" id="F-HoMVkHEqDCR95GHNdZ">
    <mxGraphModel dx="954" dy="605" grid="1" gridSize="10" guides="1" tooltips="1" connect="1" arrows="1" fold="1" page="1" pageScale="1" pageWidth="827" pageHeight="1169" math="0" shadow="0">
      <root>
        <mxCell id="0" />
        <mxCell id="1" parent="0" />
        <mxCell id="s8z5biefDG6QMYXTwjKH-2" value="&lt;b&gt;&lt;font style=&quot;font-size: 15px;&quot;&gt;High Level Architecture&lt;/font&gt;&lt;/b&gt;" style="text;html=1;align=center;verticalAlign=middle;whiteSpace=wrap;rounded=0;" parent="1" vertex="1">
          <mxGeometry x="45" y="10" width="180" height="30" as="geometry" />
        </mxCell>
        <mxCell id="s8z5biefDG6QMYXTwjKH-29" value="" style="group" parent="1" vertex="1" connectable="0">
          <mxGeometry x="17" y="80" width="803" height="1050" as="geometry" />
        </mxCell>
        <mxCell id="s8z5biefDG6QMYXTwjKH-3" value="" style="rounded=0;whiteSpace=wrap;html=1;fillColor=none;dashed=1;strokeColor=#CCCCCC;movable=1;resizable=1;rotatable=1;deletable=1;editable=1;locked=0;connectable=1;" parent="s8z5biefDG6QMYXTwjKH-29" vertex="1">
          <mxGeometry y="32.8125" width="109.49999999999999" height="1017.1875" as="geometry" />
        </mxCell>
        <mxCell id="s8z5biefDG6QMYXTwjKH-4" value="Sources" style="rounded=0;whiteSpace=wrap;html=1;fillColor=default;strokeColor=none;movable=1;resizable=1;rotatable=1;deletable=1;editable=1;locked=0;connectable=1;fontSize=18;" parent="s8z5biefDG6QMYXTwjKH-29" vertex="1">
          <mxGeometry x="18.25" width="73" height="65.625" as="geometry" />
        </mxCell>
        <mxCell id="s8z5biefDG6QMYXTwjKH-5" value="" style="rounded=0;whiteSpace=wrap;html=1;fillColor=none;dashed=1;strokeColor=#CCCCCC;movable=1;resizable=1;rotatable=1;deletable=1;editable=1;locked=0;connectable=1;" parent="s8z5biefDG6QMYXTwjKH-29" vertex="1">
          <mxGeometry x="133.83333333333334" y="32.8125" width="535.3333333333334" height="1017.1875" as="geometry" />
        </mxCell>
        <mxCell id="s8z5biefDG6QMYXTwjKH-6" value="Data Warehouse" style="rounded=0;whiteSpace=wrap;html=1;fillColor=default;strokeColor=none;movable=1;resizable=1;rotatable=1;deletable=1;editable=1;locked=0;connectable=1;fontSize=18;" parent="s8z5biefDG6QMYXTwjKH-29" vertex="1">
          <mxGeometry x="322.41937037037036" width="153.4324814814815" height="65.625" as="geometry" />
        </mxCell>
        <mxCell id="s8z5biefDG6QMYXTwjKH-11" value="" style="rounded=0;whiteSpace=wrap;html=1;fillColor=none;dashed=1;strokeColor=#CCCCCC;movable=1;resizable=1;rotatable=1;deletable=1;editable=1;locked=0;connectable=1;" parent="s8z5biefDG6QMYXTwjKH-29" vertex="1">
          <mxGeometry x="693.5" y="32.8125" width="109.49999999999999" height="1017.1875" as="geometry" />
        </mxCell>
        <mxCell id="s8z5biefDG6QMYXTwjKH-12" value="Consume" style="rounded=0;whiteSpace=wrap;html=1;fillColor=default;strokeColor=none;movable=1;resizable=1;rotatable=1;deletable=1;editable=1;locked=0;connectable=1;fontSize=18;" parent="s8z5biefDG6QMYXTwjKH-29" vertex="1">
          <mxGeometry x="716.7536543209876" width="73" height="65.625" as="geometry" />
        </mxCell>
        <mxCell id="s8z5biefDG6QMYXTwjKH-13" value="Bronze Layer" style="rounded=0;whiteSpace=wrap;html=1;fillColor=#ffe6cc;strokeColor=#d79b00;movable=1;resizable=1;rotatable=1;deletable=1;editable=1;locked=0;connectable=1;" parent="s8z5biefDG6QMYXTwjKH-29" vertex="1">
          <mxGeometry x="146" y="65.625" width="146" height="65.625" as="geometry" />
        </mxCell>
        <mxCell id="s8z5biefDG6QMYXTwjKH-14" value="" style="rounded=0;whiteSpace=wrap;html=1;fillColor=none;strokeColor=#d79b00;movable=1;resizable=1;rotatable=1;deletable=1;editable=1;locked=0;connectable=1;" parent="s8z5biefDG6QMYXTwjKH-29" vertex="1">
          <mxGeometry x="146" y="164.0625" width="146" height="853.125" as="geometry" />
        </mxCell>
        <mxCell id="s8z5biefDG6QMYXTwjKH-15" value="Bronze Layer" style="rounded=0;whiteSpace=wrap;html=1;fillColor=#f5f5f5;strokeColor=#666666;fontColor=#333333;movable=1;resizable=1;rotatable=1;deletable=1;editable=1;locked=0;connectable=1;" parent="s8z5biefDG6QMYXTwjKH-29" vertex="1">
          <mxGeometry x="322.41666666666674" y="65.625" width="146" height="65.625" as="geometry" />
        </mxCell>
        <mxCell id="s8z5biefDG6QMYXTwjKH-16" value="" style="rounded=0;whiteSpace=wrap;html=1;fillColor=none;strokeColor=light-dark(#CCCCCC,#959595);fontColor=#333333;movable=1;resizable=1;rotatable=1;deletable=1;editable=1;locked=0;connectable=1;" parent="s8z5biefDG6QMYXTwjKH-29" vertex="1">
          <mxGeometry x="322.41666666666674" y="164.0625" width="146" height="853.125" as="geometry" />
        </mxCell>
        <mxCell id="s8z5biefDG6QMYXTwjKH-17" value="Gold Layer" style="rounded=0;whiteSpace=wrap;html=1;fillColor=#fff2cc;strokeColor=#d6b656;movable=1;resizable=1;rotatable=1;deletable=1;editable=1;locked=0;connectable=1;" parent="s8z5biefDG6QMYXTwjKH-29" vertex="1">
          <mxGeometry x="498.8333333333334" y="65.625" width="146" height="65.625" as="geometry" />
        </mxCell>
        <mxCell id="s8z5biefDG6QMYXTwjKH-18" value="" style="rounded=0;whiteSpace=wrap;html=1;fillColor=none;strokeColor=#d6b656;movable=1;resizable=1;rotatable=1;deletable=1;editable=1;locked=0;connectable=1;" parent="s8z5biefDG6QMYXTwjKH-29" vertex="1">
          <mxGeometry x="498.8333333333334" y="164.0625" width="146" height="853.125" as="geometry" />
        </mxCell>
        <mxCell id="s8z5biefDG6QMYXTwjKH-19" value="CRM" style="image;aspect=fixed;html=1;points=[];align=center;fontSize=12;image=img/lib/azure2/general/Folder_Blank.svg;movable=1;resizable=1;rotatable=1;deletable=1;editable=1;locked=0;connectable=1;" parent="s8z5biefDG6QMYXTwjKH-29" vertex="1">
          <mxGeometry x="32.27" y="360.94" width="85.09" height="69.06" as="geometry" />
        </mxCell>
        <mxCell id="s8z5biefDG6QMYXTwjKH-20" value="" style="verticalLabelPosition=bottom;html=1;verticalAlign=top;align=center;strokeColor=none;fillColor=#00BEF2;shape=mxgraph.azure.cloud_services_configuration_file;pointerEvents=1;movable=1;resizable=1;rotatable=1;deletable=1;editable=1;locked=0;connectable=1;" parent="s8z5biefDG6QMYXTwjKH-29" vertex="1">
          <mxGeometry x="66.91666666666667" y="426.5625" width="24.333333333333336" height="65.625" as="geometry" />
        </mxCell>
        <mxCell id="s8z5biefDG6QMYXTwjKH-22" value="ERP" style="image;aspect=fixed;html=1;points=[];align=center;fontSize=12;image=img/lib/azure2/general/Folder_Blank.svg;movable=1;resizable=1;rotatable=1;deletable=1;editable=1;locked=0;connectable=1;" parent="s8z5biefDG6QMYXTwjKH-29" vertex="1">
          <mxGeometry x="32.266" y="590.625" width="25.502991202346042" height="20.700479872034123" as="geometry" />
        </mxCell>
        <mxCell id="s8z5biefDG6QMYXTwjKH-23" value="" style="verticalLabelPosition=bottom;html=1;verticalAlign=top;align=center;strokeColor=none;fillColor=#00BEF2;shape=mxgraph.azure.cloud_services_configuration_file;pointerEvents=1;movable=1;resizable=1;rotatable=1;deletable=1;editable=1;locked=0;connectable=1;" parent="s8z5biefDG6QMYXTwjKH-29" vertex="1">
          <mxGeometry x="66.91666666666667" y="656.25" width="24.333333333333336" height="65.625" as="geometry" />
        </mxCell>
        <mxCell id="s8z5biefDG6QMYXTwjKH-24" value="" style="endArrow=none;html=1;rounded=0;fontSize=12;startSize=8;endSize=8;curved=1;movable=1;resizable=1;rotatable=1;deletable=1;editable=1;locked=0;connectable=1;" parent="s8z5biefDG6QMYXTwjKH-29" edge="1">
          <mxGeometry width="50" height="50" relative="1" as="geometry">
            <mxPoint x="16.266833333333327" y="787.5" as="sourcePoint" />
            <mxPoint x="93.23316666666666" y="787.5" as="targetPoint" />
          </mxGeometry>
        </mxCell>
        <mxCell id="s8z5biefDG6QMYXTwjKH-28" value="&lt;b&gt;Object Type&lt;/b&gt;: CSV files&lt;br&gt;&lt;b&gt;Interface:&lt;/b&gt; &lt;br&gt;Files in Folder&lt;br&gt;&lt;div&gt;&lt;br&gt;&lt;/div&gt;" style="text;html=1;align=center;verticalAlign=middle;whiteSpace=wrap;rounded=0;movable=1;resizable=1;rotatable=1;deletable=1;editable=1;locked=0;connectable=1;" parent="s8z5biefDG6QMYXTwjKH-29" vertex="1">
          <mxGeometry x="12.163962962962962" y="820.3125" width="85.16756790123458" height="185.93750000000003" as="geometry" />
        </mxCell>
        <mxCell id="s8z5biefDG6QMYXTwjKH-32" value="" style="html=1;verticalLabelPosition=bottom;align=center;labelBackgroundColor=#ffffff;verticalAlign=top;strokeWidth=2;strokeColor=#d6b656;shadow=0;dashed=0;shape=mxgraph.ios7.icons.data;fillColor=#fff2cc;" parent="s8z5biefDG6QMYXTwjKH-29" vertex="1">
          <mxGeometry x="531.8411358403685" y="209.70326086956527" width="67.73425172678434" height="216.85923913043482" as="geometry" />
        </mxCell>
        <mxCell id="s8z5biefDG6QMYXTwjKH-35" value="" style="shape=flexArrow;endArrow=classic;html=1;rounded=0;fontSize=12;startSize=8;endSize=8;curved=1;fillColor=#dae8fc;strokeColor=#6c8ebf;" parent="s8z5biefDG6QMYXTwjKH-29" edge="1">
          <mxGeometry width="50" height="50" relative="1" as="geometry">
            <mxPoint x="75.01606172839507" y="540.1812500000002" as="sourcePoint" />
            <mxPoint x="184.06544444444447" y="540.1812500000002" as="targetPoint" />
          </mxGeometry>
        </mxCell>
        <mxCell id="s8z5biefDG6QMYXTwjKH-36" value="" style="shape=flexArrow;endArrow=classic;html=1;rounded=0;fontSize=12;startSize=8;endSize=8;curved=1;fillColor=#dae8fc;strokeColor=#6c8ebf;" parent="s8z5biefDG6QMYXTwjKH-29" edge="1">
          <mxGeometry width="50" height="50" relative="1" as="geometry">
            <mxPoint x="260.72716049382717" y="540.1812500000002" as="sourcePoint" />
            <mxPoint x="369.7765432098765" y="540.1812500000002" as="targetPoint" />
          </mxGeometry>
        </mxCell>
        <mxCell id="s8z5biefDG6QMYXTwjKH-37" value="" style="shape=flexArrow;endArrow=classic;html=1;rounded=0;fontSize=12;startSize=8;endSize=8;curved=1;fillColor=#dae8fc;strokeColor=#6c8ebf;" parent="s8z5biefDG6QMYXTwjKH-29" edge="1">
          <mxGeometry width="50" height="50" relative="1" as="geometry">
            <mxPoint x="429.25802469135806" y="540.1812500000002" as="sourcePoint" />
            <mxPoint x="538.3074074074075" y="540.1812500000002" as="targetPoint" />
          </mxGeometry>
        </mxCell>
        <mxCell id="s8z5biefDG6QMYXTwjKH-38" value="" style="shape=flexArrow;endArrow=classic;html=1;rounded=0;fontSize=12;startSize=8;endSize=8;curved=1;fillColor=#dae8fc;strokeColor=#6c8ebf;" parent="s8z5biefDG6QMYXTwjKH-29" edge="1">
          <mxGeometry width="50" height="50" relative="1" as="geometry">
            <mxPoint x="607.7024691358025" y="540.1812500000002" as="sourcePoint" />
            <mxPoint x="716.7518518518518" y="540.1812500000002" as="targetPoint" />
          </mxGeometry>
        </mxCell>
        <mxCell id="s8z5biefDG6QMYXTwjKH-39" value="Raw Data&amp;nbsp;" style="text;html=1;align=center;verticalAlign=middle;whiteSpace=wrap;rounded=0;" parent="s8z5biefDG6QMYXTwjKH-29" vertex="1">
          <mxGeometry x="189.26016049382716" y="612.5000000000001" width="59.481481481481495" height="65.625" as="geometry" />
        </mxCell>
        <mxCell id="s8z5biefDG6QMYXTwjKH-40" value="Cleaned, Standardized Data" style="text;html=1;align=center;verticalAlign=middle;whiteSpace=wrap;rounded=0;" parent="s8z5biefDG6QMYXTwjKH-29" vertex="1">
          <mxGeometry x="346.9753086419753" y="612.5000000000001" width="109.04938271604937" height="65.625" as="geometry" />
        </mxCell>
        <mxCell id="s8z5biefDG6QMYXTwjKH-41" value="Business-Ready Data" style="text;html=1;align=center;verticalAlign=middle;whiteSpace=wrap;rounded=0;" parent="s8z5biefDG6QMYXTwjKH-29" vertex="1">
          <mxGeometry x="517.3104444444446" y="612.5000000000001" width="109.04938271604937" height="65.625" as="geometry" />
        </mxCell>
        <mxCell id="s8z5biefDG6QMYXTwjKH-42" value="" style="endArrow=none;html=1;rounded=0;fontSize=12;startSize=8;endSize=8;curved=1;movable=1;resizable=1;rotatable=1;deletable=1;editable=1;locked=0;connectable=1;" parent="s8z5biefDG6QMYXTwjKH-29" edge="1">
          <mxGeometry width="50" height="50" relative="1" as="geometry">
            <mxPoint x="180.52119356565572" y="688.0239130434784" as="sourcePoint" />
            <mxPoint x="257.4875268989891" y="688.0239130434784" as="targetPoint" />
          </mxGeometry>
        </mxCell>
        <mxCell id="s8z5biefDG6QMYXTwjKH-43" value="" style="endArrow=none;html=1;rounded=0;fontSize=12;startSize=8;endSize=8;curved=1;movable=1;resizable=1;rotatable=1;deletable=1;editable=1;locked=0;connectable=1;" parent="s8z5biefDG6QMYXTwjKH-29" edge="1">
          <mxGeometry width="50" height="50" relative="1" as="geometry">
            <mxPoint x="356.93094223681345" y="688.0239130434784" as="sourcePoint" />
            <mxPoint x="433.8972755701467" y="688.0239130434784" as="targetPoint" />
          </mxGeometry>
        </mxCell>
        <mxCell id="s8z5biefDG6QMYXTwjKH-44" value="" style="endArrow=none;html=1;rounded=0;fontSize=12;startSize=8;endSize=8;curved=1;movable=1;resizable=1;rotatable=1;deletable=1;editable=1;locked=0;connectable=1;" parent="s8z5biefDG6QMYXTwjKH-29" edge="1">
          <mxGeometry width="50" height="50" relative="1" as="geometry">
            <mxPoint x="548.5400962782941" y="688.0239130434784" as="sourcePoint" />
            <mxPoint x="625.5064296116275" y="688.0239130434784" as="targetPoint" />
          </mxGeometry>
        </mxCell>
        <mxCell id="s8z5biefDG6QMYXTwjKH-45" value="&lt;div style=&quot;text-align: left;&quot;&gt;&lt;div&gt;&lt;b style=&quot;background-color: transparent; color: light-dark(rgb(0, 0, 0), rgb(255, 255, 255));&quot;&gt;Object Type&lt;/b&gt;&lt;span style=&quot;background-color: transparent; color: light-dark(rgb(0, 0, 0), rgb(255, 255, 255));&quot;&gt;: Tables&lt;br&gt;&lt;br&gt;&lt;b&gt;No Transformations&lt;br&gt;&lt;br&gt;Data Model: None (As-is)&lt;/b&gt;&lt;/span&gt;&lt;/div&gt;&lt;div&gt;&lt;span style=&quot;background-color: transparent; color: light-dark(rgb(0, 0, 0), rgb(255, 255, 255));&quot;&gt;&lt;b&gt;&lt;br&gt;Load:&lt;br&gt;&lt;/b&gt;&lt;/span&gt;&lt;/div&gt;&lt;ul&gt;&lt;li&gt;&lt;span style=&quot;background-color: transparent; color: light-dark(rgb(0, 0, 0), rgb(255, 255, 255)); text-align: center;&quot;&gt;Batch Processing&lt;/span&gt;&lt;/li&gt;&lt;li&gt;&lt;span style=&quot;background-color: transparent;&quot;&gt;Full load&lt;/span&gt;&lt;/li&gt;&lt;li&gt;&lt;span style=&quot;background-color: transparent;&quot;&gt;Truncate &amp;amp; Insert&lt;/span&gt;&lt;/li&gt;&lt;/ul&gt;&lt;div&gt;&lt;br style=&quot;text-align: center;&quot;&gt;&lt;/div&gt;&lt;/div&gt;" style="text;html=1;align=center;verticalAlign=middle;whiteSpace=wrap;rounded=0;movable=1;resizable=1;rotatable=1;deletable=1;editable=1;locked=0;connectable=1;" parent="s8z5biefDG6QMYXTwjKH-29" vertex="1">
          <mxGeometry x="151.6147812739831" y="743.7538043478261" width="134.77828089025326" height="249.1809782608696" as="geometry" />
        </mxCell>
        <mxCell id="s8z5biefDG6QMYXTwjKH-113" value="&lt;div style=&quot;text-align: left;&quot;&gt;&lt;div&gt;&lt;b style=&quot;background-color: transparent; color: light-dark(rgb(0, 0, 0), rgb(255, 255, 255));&quot;&gt;Object Type&lt;/b&gt;&lt;span style=&quot;background-color: transparent; color: light-dark(rgb(0, 0, 0), rgb(255, 255, 255));&quot;&gt;: Tables&lt;br&gt;&lt;br&gt;&lt;/span&gt;&lt;span style=&quot;background-color: transparent; color: light-dark(rgb(0, 0, 0), rgb(255, 255, 255));&quot;&gt;&lt;b&gt;Transformations:&lt;/b&gt;&lt;br&gt;&lt;ul style=&quot;&quot;&gt;&lt;li style=&quot;&quot;&gt;Data Cleansing&lt;br&gt;&lt;/li&gt;&lt;li style=&quot;&quot;&gt;Data Standardization&lt;/li&gt;&lt;li style=&quot;&quot;&gt;Data Normalization&lt;/li&gt;&lt;li style=&quot;&quot;&gt;Derived Columns&lt;/li&gt;&lt;li style=&quot;&quot;&gt;Data Enrichment&lt;/li&gt;&lt;/ul&gt;&lt;/span&gt;&lt;span style=&quot;background-color: transparent; color: light-dark(rgb(0, 0, 0), rgb(255, 255, 255));&quot;&gt;&lt;b&gt;&lt;br&gt;Data Model: None (As-is)&lt;/b&gt;&lt;/span&gt;&lt;/div&gt;&lt;div&gt;&lt;span style=&quot;background-color: transparent; color: light-dark(rgb(0, 0, 0), rgb(255, 255, 255));&quot;&gt;&lt;b&gt;&lt;br&gt;Load:&lt;br&gt;&lt;/b&gt;&lt;/span&gt;&lt;/div&gt;&lt;ul&gt;&lt;li&gt;&lt;span style=&quot;background-color: transparent; color: light-dark(rgb(0, 0, 0), rgb(255, 255, 255)); text-align: center;&quot;&gt;Batch Processing&lt;/span&gt;&lt;/li&gt;&lt;li&gt;&lt;span style=&quot;background-color: transparent;&quot;&gt;Full load&lt;/span&gt;&lt;/li&gt;&lt;li&gt;&lt;span style=&quot;background-color: transparent;&quot;&gt;Truncate &amp;amp; Insert&lt;/span&gt;&lt;/li&gt;&lt;/ul&gt;&lt;div&gt;&lt;br style=&quot;text-align: center;&quot;&gt;&lt;/div&gt;&lt;/div&gt;" style="text;html=1;align=center;verticalAlign=middle;whiteSpace=wrap;rounded=0;movable=1;resizable=1;rotatable=1;deletable=1;editable=1;locked=0;connectable=1;" parent="s8z5biefDG6QMYXTwjKH-29" vertex="1">
          <mxGeometry x="341.0747122026093" y="730.4347826086956" width="134.77828089025326" height="249.1809782608696" as="geometry" />
        </mxCell>
        <mxCell id="s8z5biefDG6QMYXTwjKH-114" value="&lt;div style=&quot;text-align: left;&quot;&gt;&lt;div&gt;&lt;b style=&quot;background-color: transparent; color: light-dark(rgb(0, 0, 0), rgb(255, 255, 255));&quot;&gt;Object Type&lt;/b&gt;&lt;span style=&quot;background-color: transparent; color: light-dark(rgb(0, 0, 0), rgb(255, 255, 255));&quot;&gt;: Views&lt;br&gt;&lt;br&gt;No &lt;b&gt;Loads&lt;/b&gt;&lt;br&gt;&lt;br&gt;&lt;b&gt;Transformations:&lt;/b&gt;&lt;/span&gt;&lt;div&gt;&lt;ul&gt;&lt;li&gt;Data Integrations&lt;/li&gt;&lt;li&gt;&lt;span style=&quot;background-color: transparent; color: light-dark(rgb(0, 0, 0), rgb(255, 255, 255));&quot;&gt;Aggregations&lt;/span&gt;&lt;/li&gt;&lt;li&gt;&lt;span style=&quot;background-color: transparent; color: light-dark(rgb(0, 0, 0), rgb(255, 255, 255));&quot;&gt;Business Logics&lt;/span&gt;&lt;/li&gt;&lt;/ul&gt;&lt;/div&gt;&lt;span style=&quot;background-color: transparent; color: light-dark(rgb(0, 0, 0), rgb(255, 255, 255));&quot;&gt;&lt;br&gt;&lt;b&gt;Data Model:&amp;nbsp;&lt;/b&gt;&lt;br&gt;&lt;ul style=&quot;&quot;&gt;&lt;li style=&quot;&quot;&gt;Star Schema&lt;/li&gt;&lt;li style=&quot;&quot;&gt;Flat Table&lt;/li&gt;&lt;li style=&quot;&quot;&gt;Aggregated Table&lt;/li&gt;&lt;/ul&gt;&lt;/span&gt;&lt;b style=&quot;background-color: transparent; color: light-dark(rgb(0, 0, 0), rgb(255, 255, 255));&quot;&gt;&lt;br&gt;No Load&lt;/b&gt;&lt;/div&gt;&lt;div&gt;&lt;br style=&quot;text-align: center;&quot;&gt;&lt;/div&gt;&lt;/div&gt;" style="text;html=1;align=center;verticalAlign=middle;whiteSpace=wrap;rounded=0;movable=1;resizable=1;rotatable=1;deletable=1;editable=1;locked=0;connectable=1;" parent="s8z5biefDG6QMYXTwjKH-29" vertex="1">
          <mxGeometry x="510.0559861857252" y="743.7538043478261" width="134.77828089025326" height="249.1809782608696" as="geometry" />
        </mxCell>
        <mxCell id="s8z5biefDG6QMYXTwjKH-116" value="" style="sketch=0;html=1;aspect=fixed;strokeColor=none;shadow=0;fillColor=#3B8DF1;verticalAlign=top;labelPosition=center;verticalLabelPosition=bottom;shape=mxgraph.gcp2.big_query" parent="s8z5biefDG6QMYXTwjKH-29" vertex="1">
          <mxGeometry x="716.7529930928627" y="473.5271739130436" width="45.97045280122793" height="46.434800809321146" as="geometry" />
        </mxCell>
        <mxCell id="s8z5biefDG6QMYXTwjKH-117" value="" style="sketch=0;outlineConnect=0;fontColor=#232F3E;gradientColor=none;fillColor=light-dark(#011def, #0e9d86);strokeColor=none;dashed=0;verticalLabelPosition=bottom;verticalAlign=top;align=center;html=1;fontSize=12;fontStyle=0;aspect=fixed;pointerEvents=1;shape=mxgraph.aws4.sagemaker_model;" parent="s8z5biefDG6QMYXTwjKH-29" vertex="1">
          <mxGeometry x="714.8733691481197" y="764.6739130434784" width="46.434800809321146" height="46.434800809321146" as="geometry" />
        </mxCell>
        <mxCell id="s8z5biefDG6QMYXTwjKH-118" value="Ad-Hoc&lt;br&gt;SQL Queries" style="text;html=1;align=center;verticalAlign=middle;whiteSpace=wrap;rounded=0;" parent="s8z5biefDG6QMYXTwjKH-29" vertex="1">
          <mxGeometry x="719.5262087490406" y="592.8733695652174" width="55.46431312356101" height="79.8913043478261" as="geometry" />
        </mxCell>
        <mxCell id="s8z5biefDG6QMYXTwjKH-119" value="Machine Learning" style="text;html=1;align=center;verticalAlign=middle;whiteSpace=wrap;rounded=0;" parent="s8z5biefDG6QMYXTwjKH-29" vertex="1">
          <mxGeometry x="716.7529930928627" y="913.0434782608697" width="55.46431312356101" height="79.8913043478261" as="geometry" />
        </mxCell>
        <mxCell id="s8z5biefDG6QMYXTwjKH-120" value="" style="sketch=0;outlineConnect=0;fillColor=#0000FF;strokeColor=#0000FF;dashed=0;verticalLabelPosition=bottom;verticalAlign=top;align=center;html=1;fontSize=12;fontStyle=0;aspect=fixed;pointerEvents=1;shape=mxgraph.aws4.opensearch_dashboards;" parent="s8z5biefDG6QMYXTwjKH-29" vertex="1">
          <mxGeometry x="714.8733691481197" y="183.85271739130437" width="47.82784483360078" height="36.1773533105421" as="geometry" />
        </mxCell>
        <mxCell id="s8z5biefDG6QMYXTwjKH-121" value="BI &amp;amp; Reporting" style="text;html=1;align=center;verticalAlign=middle;whiteSpace=wrap;rounded=0;" parent="s8z5biefDG6QMYXTwjKH-29" vertex="1">
          <mxGeometry x="714.8733691481197" y="308.1521739130435" width="55.46431312356101" height="79.8913043478261" as="geometry" />
        </mxCell>
        <mxCell id="s8z5biefDG6QMYXTwjKH-122" value="" style="html=1;verticalLabelPosition=bottom;align=center;labelBackgroundColor=#ffffff;verticalAlign=top;strokeWidth=2;strokeColor=#666666;shadow=0;dashed=0;shape=mxgraph.ios7.icons.data;fillColor=#f5f5f5;fontColor=#333333;" parent="s8z5biefDG6QMYXTwjKH-29" vertex="1">
          <mxGeometry x="361.5472064466616" y="209.70326086956527" width="67.73425172678434" height="216.85923913043482" as="geometry" />
        </mxCell>
        <mxCell id="s8z5biefDG6QMYXTwjKH-165" value="" style="html=1;verticalLabelPosition=bottom;align=center;labelBackgroundColor=#ffffff;verticalAlign=top;strokeWidth=2;strokeColor=#d79b00;shadow=0;dashed=0;shape=mxgraph.ios7.icons.data;fillColor=#ffe6cc;" parent="s8z5biefDG6QMYXTwjKH-29" vertex="1">
          <mxGeometry x="176.86953184957792" y="209.70326086956527" width="67.73425172678434" height="216.85923913043482" as="geometry" />
        </mxCell>
      </root>
    </mxGraphModel>
  </diagram>
  <diagram id="vmH_kFTm8W_m170rdrZO" name="Page-2">
    <mxGraphModel dx="954" dy="1005" grid="1" gridSize="10" guides="1" tooltips="1" connect="1" arrows="1" fold="1" page="0" pageScale="1" pageWidth="827" pageHeight="1169" math="0" shadow="0">
      <root>
        <mxCell id="0" />
        <mxCell id="1" parent="0" />
        <mxCell id="HAjjA8nVJgZdTjYWs5Xh-2" value="" style="shape=image;verticalLabelPosition=bottom;labelBackgroundColor=default;verticalAlign=top;aspect=fixed;imageAspect=0;image=https://substackcdn.com/image/fetch/w_1456,c_limit,f_auto,q_auto:good,fl_progressive:steep/https%3A%2F%2Fsubstack-post-media.s3.amazonaws.com%2Fpublic%2Fimages%2Fa52879f6-c619-4f9b-83a9-1119989faf0c_2741x1385.png;" parent="1" vertex="1">
          <mxGeometry x="70" y="-80" width="1200" height="607" as="geometry" />
        </mxCell>
        <mxCell id="HAjjA8nVJgZdTjYWs5Xh-8" value="" style="shape=image;html=1;verticalAlign=top;verticalLabelPosition=bottom;labelBackgroundColor=#ffffff;imageAspect=0;aspect=fixed;image=https://cdn3.iconfinder.com/data/icons/drifting/Me.png;imageBackground=default;" parent="1" vertex="1">
          <mxGeometry x="296" y="-90" width="64" height="64" as="geometry" />
        </mxCell>
        <mxCell id="HAjjA8nVJgZdTjYWs5Xh-9" value="My SQL" style="text;html=1;align=center;verticalAlign=middle;whiteSpace=wrap;rounded=0;fillColor=default;" parent="1" vertex="1">
          <mxGeometry x="360" y="-73" width="60" height="30" as="geometry" />
        </mxCell>
      </root>
    </mxGraphModel>
  </diagram>
</mxfile>
